<?xml version="1.0" standalone="no"?>
<!DOCTYPE svg PUBLIC "-//W3C//DTD SVG 20010904//EN"
 "http://www.w3.org/TR/2001/REC-SVG-20010904/DTD/svg10.dtd">
<svg version="1.0" xmlns="http://www.w3.org/2000/svg"
 width="514.000000pt" height="514.000000pt" viewBox="0 0 514.000000 514.000000"
 preserveAspectRatio="xMidYMid meet">
<metadata>
Created by potrace 1.16, written by Peter Selinger 2001-2019
</metadata>
<g transform="translate(0.000000,514.000000) scale(0.100000,-0.100000)"
fill="#000000" stroke="none">
<path d="M3869 5108 c-20 -23 -20 -49 -19 -2368 l0 -2344 23 -24 24 -23 461 0
c311 0 468 3 481 11 11 6 25 19 31 30 7 13 10 771 10 2352 0 2261 0 2334 -19
2358 l-18 25 -477 3 -477 2 -20 -22z m826 -2368 l0 -2205 -330 0 -330 0 -3
2195 c-1 1207 0 2201 3 2208 3 10 75 12 332 10 l328 -3 0 -2205z"/>
<path d="M1500 4098 c-15 -9 -31 -21 -34 -26 -3 -6 -6 -835 -6 -1843 l0 -1833
23 -24 23 -23 462 0 c313 0 467 3 481 11 11 6 25 19 31 30 7 13 10 608 10
1840 0 1666 -1 1823 -16 1845 -9 14 -26 28 -38 31 -11 2 -221 6 -465 7 -399 2
-447 0 -471 -15z m805 -1868 l0 -1695 -330 0 -330 0 -3 1685 c-1 927 0 1691 3
1698 3 10 75 12 332 10 l328 -3 0 -1695z"/>
<path d="M2724 3091 c-22 -4 -52 -28 -65 -53 -13 -25 -12 -2623 1 -2648 6 -11
20 -24 31 -30 14 -8 168 -11 481 -11 l462 0 23 24 23 23 0 1317 c0 807 -3
1324 -9 1335 -22 41 -39 43 -492 45 -239 1 -444 0 -455 -2z m771 -1371 l0
-1185 -330 0 -330 0 -3 1175 c-1 646 0 1181 3 1188 3 10 75 12 332 10 l328 -3
0 -1185z"/>
<path d="M288 2038 c-15 -14 -28 -34 -28 -45 -4 -707 2 -1588 10 -1603 6 -11
20 -24 31 -30 13 -8 170 -11 481 -11 l461 0 24 23 24 24 0 809 0 809 -24 23
-23 24 -464 2 -463 2 -29 -27z m817 -833 l0 -670 -330 0 -330 0 -3 660 c-1
363 0 666 3 673 3 10 75 12 332 10 l328 -3 0 -670z"/>
<path d="M10 103 l0 -93 2560 0 2560 0 0 93 0 92 -2560 0 -2560 0 0 -92z"/>
</g>
</svg>
