<?xml version="1.0" standalone="no"?>
<!DOCTYPE svg PUBLIC "-//W3C//DTD SVG 20010904//EN"
 "http://www.w3.org/TR/2001/REC-SVG-20010904/DTD/svg10.dtd">
<svg version="1.0" xmlns="http://www.w3.org/2000/svg"
 width="512.000000pt" height="512.000000pt" viewBox="0 0 512.000000 512.000000"
 preserveAspectRatio="xMidYMid meet">
<metadata>
Created by potrace 1.16, written by Peter Selinger 2001-2019
</metadata>
<g transform="translate(0.000000,512.000000) scale(0.100000,-0.100000)"
fill="#000000" stroke="none">
<path d="M1940 5114 c-25 -2 -103 -9 -175 -15 -560 -47 -1060 -188 -1361 -384
-156 -102 -250 -208 -299 -340 l-25 -65 0 -1660 0 -1660 24 -68 c31 -90 66
-144 139 -216 250 -245 797 -428 1497 -501 108 -11 164 -13 182 -6 62 23 78
103 30 151 -24 23 -39 29 -103 34 -495 46 -904 141 -1187 276 -139 66 -227
127 -300 205 -92 98 -92 98 -92 532 l0 364 43 -34 c274 -223 802 -388 1432
-447 199 -19 590 -31 625 -19 61 22 78 102 32 148 -28 28 -28 28 -207 35 -99
4 -236 11 -305 16 -798 62 -1458 296 -1590 565 l-25 50 -3 384 -3 383 48 -40
c277 -230 836 -396 1533 -453 200 -17 770 -17 970 0 670 55 1209 208 1499 427
40 30 74 54 77 54 2 0 4 -81 4 -179 l0 -179 31 -26 c33 -28 64 -32 102 -15 54
25 52 -19 55 963 2 902 2 910 -19 973 -109 327 -615 585 -1369 698 -260 39
-385 47 -800 50 -228 1 -435 1 -460 -1z m800 -195 c707 -45 1319 -229 1560
-470 130 -129 123 -250 -22 -385 -205 -189 -660 -347 -1208 -418 -276 -36
-353 -40 -725 -41 -385 0 -494 6 -776 45 -747 103 -1290 363 -1289 617 1 65
27 119 91 183 344 340 1328 535 2369 469z m-2390 -1064 c247 -185 708 -337
1210 -399 282 -35 392 -41 775 -41 383 0 495 6 775 41 512 64 962 212 1210
399 30 22 61 44 68 49 10 6 12 -63 10 -371 -3 -363 -4 -380 -25 -425 -151
-327 -1054 -588 -2033 -588 -992 0 -1889 259 -2044 590 -20 43 -21 63 -24 423
-3 310 -1 377 10 371 7 -5 38 -27 68 -49z"/>
<path d="M3703 2322 c-27 -21 -36 -44 -58 -160 -27 -142 -71 -193 -172 -200
-57 -4 -59 -3 -167 67 -111 72 -131 79 -169 60 -40 -20 -217 -203 -227 -235
-14 -40 -5 -62 63 -156 30 -42 57 -91 61 -108 10 -51 -11 -111 -55 -152 -31
-30 -52 -39 -116 -53 -175 -37 -173 -34 -173 -243 0 -201 0 -200 186 -231 110
-19 174 -83 174 -176 0 -40 -15 -74 -71 -156 -70 -103 -65 -125 59 -252 139
-142 156 -145 286 -55 108 75 154 84 226 46 56 -31 85 -80 101 -173 13 -79 31
-120 58 -135 11 -6 89 -10 181 -10 155 0 162 1 184 23 15 15 26 41 30 73 18
123 48 173 124 206 60 27 98 18 190 -43 115 -75 121 -74 259 64 106 106 113
115 113 153 0 31 -11 55 -50 113 -79 116 -85 178 -26 256 30 39 80 59 186 75
92 15 116 29 129 77 16 56 14 267 -2 306 -20 47 -36 56 -128 73 -104 20 -151
43 -179 90 -50 80 -38 138 54 264 73 100 66 128 -71 262 -127 124 -149 129
-252 59 -82 -56 -116 -71 -156 -71 -93 0 -157 64 -176 174 -31 187 -29 186
-238 186 -132 0 -159 -3 -178 -18z m234 -232 c15 -81 46 -142 99 -195 118
-118 301 -139 448 -50 l54 32 30 -30 30 -30 -38 -59 c-111 -171 -58 -410 113
-508 48 -28 74 -37 150 -54 24 -6 27 -11 27 -50 l0 -44 -55 -7 c-76 -9 -165
-56 -219 -116 -62 -69 -89 -143 -89 -246 -1 -78 1 -88 41 -165 l42 -82 -29
-30 -29 -29 -30 22 c-53 37 -112 54 -198 54 -92 0 -165 -27 -239 -87 -47 -39
-101 -133 -111 -194 -7 -42 -7 -42 -50 -42 -46 0 -46 0 -59 70 -11 55 -64 147
-108 186 -120 109 -307 124 -445 34 l-59 -38 -30 30 -30 30 32 54 c89 147 68
330 -50 448 -54 53 -114 84 -195 99 l-61 12 3 44 3 45 60 13 c77 17 132 51
188 113 61 68 89 143 89 240 0 84 -17 140 -62 206 -16 25 -30 48 -30 53 0 4
12 19 28 34 l28 26 59 -39 c82 -55 149 -73 246 -68 96 6 168 39 232 107 56 59
81 108 97 186 7 33 14 66 16 73 2 7 21 12 46 12 l43 0 12 -60z"/>
<path d="M3740 1604 c-148 -40 -276 -170 -315 -319 -49 -191 30 -396 195 -500
275 -173 644 -3 689 317 46 325 -252 587 -569 502z m225 -198 c99 -46 157
-132 158 -235 1 -147 -117 -265 -264 -264 -105 1 -190 59 -237 162 -63 137 17
306 168 352 51 15 124 9 175 -15z"/>
</g>
</svg>
