<?xml version="1.0" standalone="no"?>
<!DOCTYPE svg PUBLIC "-//W3C//DTD SVG 20010904//EN"
 "http://www.w3.org/TR/2001/REC-SVG-20010904/DTD/svg10.dtd">
<svg version="1.0" xmlns="http://www.w3.org/2000/svg"
 width="512.000000pt" height="512.000000pt" viewBox="0 0 512.000000 512.000000"
 preserveAspectRatio="xMidYMid meet">
<metadata>
Created by potrace 1.16, written by Peter Selinger 2001-2019
</metadata>
<g transform="translate(0.000000,512.000000) scale(0.100000,-0.100000)"
fill="#000000" stroke="none">
<path d="M4288 4443 c-10 -11 -18 -35 -18 -56 0 -49 27 -67 104 -67 l60 0
-562 -351 -562 -352 -63 60 c-101 97 -159 104 -297 34 l-75 -39 -99 50 c-55
28 -145 65 -200 83 l-101 33 -33 93 c-57 164 -68 169 -337 169 -269 0 -280 -5
-337 -169 l-33 -93 -101 -33 c-55 -18 -145 -55 -200 -83 l-99 -50 -75 39
c-160 81 -195 70 -377 -114 -73 -73 -137 -145 -142 -160 -22 -57 -13 -112 31
-201 l41 -83 -48 -98 c-27 -53 -65 -144 -84 -202 l-36 -106 -92 -32 c-162 -56
-173 -76 -173 -335 0 -259 11 -279 173 -335 l92 -32 37 -109 c21 -60 59 -151
85 -202 l47 -93 -42 -85 c-46 -93 -54 -151 -27 -208 9 -18 75 -91 148 -163
178 -176 201 -183 365 -104 l80 40 68 -37 c80 -42 210 -94 281 -112 l50 -13
28 -86 c31 -99 64 -147 111 -167 41 -17 407 -20 451 -3 54 20 81 58 115 161
18 54 37 98 44 98 30 0 180 56 280 105 l112 54 75 -39 c158 -81 186 -73 364
103 73 72 139 145 148 163 27 57 19 115 -27 209 l-42 85 36 67 37 68 621 5
c601 5 622 6 636 24 12 17 14 167 14 985 0 918 -1 968 -19 1006 -39 85 -82
105 -229 105 -123 0 -157 -12 -206 -73 l-31 -39 -3 -934 -2 -934 -125 0 -125
0 0 688 c0 645 -2 689 -19 727 -37 81 -90 105 -228 105 -138 -1 -192 -27 -228
-113 -13 -31 -15 -128 -15 -722 l0 -685 -125 0 -125 0 0 458 c0 423 -2 460
-19 498 -37 82 -103 108 -251 102 -110 -4 -153 -24 -192 -86 l-23 -37 -3 -467
-3 -468 -124 0 -125 0 0 227 c0 209 -2 230 -21 270 -36 74 -65 87 -202 91
-140 4 -156 1 -201 -39 -63 -55 -67 -81 -64 -387 3 -257 4 -274 22 -288 16
-11 88 -14 404 -14 l383 0 -21 -30 c-38 -54 -182 -160 -285 -210 -164 -80
-230 -95 -430 -95 -197 0 -265 15 -420 90 -216 104 -397 299 -484 518 -49 124
-66 218 -65 362 0 204 48 364 159 530 233 351 663 514 1064 405 78 -22 253
-99 264 -118 4 -5 -185 -129 -428 -281 -239 -150 -441 -282 -450 -294 -20 -29
-19 -49 6 -81 13 -17 30 -26 49 -26 20 0 406 236 1362 834 733 459 1334 833
1336 831 2 -1 -4 -20 -13 -41 -22 -52 -22 -90 0 -114 22 -24 71 -26 96 -4 9 8
50 90 89 180 76 174 82 212 39 234 -10 6 -105 13 -211 17 -183 5 -194 5 -210
-14z m-1969 -595 c20 -59 43 -114 51 -123 9 -8 43 -22 75 -30 96 -25 192 -63
303 -121 57 -30 115 -54 128 -54 14 0 69 22 121 50 68 35 100 47 112 41 21
-12 76 -70 70 -75 -2 -2 -95 -60 -207 -130 l-203 -127 -27 20 c-205 145 -492
219 -746 192 -143 -16 -258 -50 -391 -116 -184 -91 -322 -213 -430 -379 -67
-103 -86 -141 -123 -247 -64 -180 -79 -421 -38 -607 95 -436 444 -774 885
-858 111 -22 300 -22 412 0 267 50 502 192 670 402 l51 64 134 0 c74 0 134 -3
134 -7 0 -5 -14 -30 -30 -58 -16 -27 -30 -58 -30 -68 0 -9 23 -62 50 -117 28
-55 50 -105 50 -111 0 -7 -55 -65 -122 -129 l-123 -118 -97 49 c-54 27 -111
49 -127 49 -16 0 -60 -18 -97 -40 -87 -51 -186 -92 -300 -125 -49 -14 -96 -32
-104 -41 -8 -8 -31 -63 -51 -122 l-36 -107 -173 -3 c-132 -2 -175 1 -182 10
-4 7 -21 57 -38 110 -17 53 -37 104 -46 112 -8 9 -34 20 -57 26 -129 33 -287
98 -374 153 -24 15 -57 27 -74 27 -18 0 -72 -21 -127 -50 l-97 -50 -125 125
-125 125 53 105 c28 58 52 112 52 119 0 8 -27 65 -59 128 -55 104 -105 233
-131 334 -12 48 -27 57 -161 98 -52 15 -89 32 -93 42 -9 23 -7 317 2 332 5 6
55 28 112 47 104 35 140 56 140 83 0 37 77 238 131 340 32 63 59 120 59 128 0
7 -24 61 -52 119 l-53 105 126 126 125 125 97 -50 c53 -28 108 -51 122 -51 14
0 72 25 128 54 92 50 292 126 329 126 37 0 68 42 94 128 45 148 20 133 222
130 l175 -3 36 -107z m2271 -137 c7 -13 10 -319 10 -920 l0 -901 -105 0 -105
0 0 901 c0 601 3 907 10 920 9 16 22 19 95 19 73 0 86 -3 95 -19z m-746 -457
c14 -14 16 -90 16 -690 l0 -674 -105 0 -105 0 0 674 c0 600 2 676 16 690 11
12 35 16 89 16 54 0 78 -4 89 -16z m-746 -460 l22 -15 0 -445 0 -444 -105 0
-105 0 0 440 c0 513 -7 480 103 480 40 0 70 -5 85 -16z m-730 -466 c9 -9 12
-73 12 -225 l0 -213 -105 0 -105 0 0 206 c0 122 4 213 10 225 9 16 22 19 93
19 51 0 88 -5 95 -12z"/>
</g>
</svg>
