<?xml version="1.0" encoding="UTF-8"?>
<!DOCTYPE svg PUBLIC "-//W3C//DTD SVG 1.1//EN" "http://www.w3.org/Graphics/SVG/1.1/DTD/svg11.dtd">
<svg xmlns="http://www.w3.org/2000/svg" version="1.1" width="50px" height="50px" style="shape-rendering:geometricPrecision; text-rendering:geometricPrecision; image-rendering:optimizeQuality; fill-rule:evenodd; clip-rule:evenodd" xmlns:xlink="http://www.w3.org/1999/xlink">
<g><path style="opacity:0.984" fill="#000000" d="M 26.5,0.5 C 32.1667,0.5 37.8333,0.5 43.5,0.5C 43.5,16.5 43.5,32.5 43.5,48.5C 31.1667,48.5 18.8333,48.5 6.5,48.5C 6.5,39.5 6.5,30.5 6.5,21.5C 9.5,21.5 12.5,21.5 15.5,21.5C 15.5,18.1667 15.5,14.8333 15.5,11.5C 19.1667,11.5 22.8333,11.5 26.5,11.5C 26.5,7.83333 26.5,4.16667 26.5,0.5 Z M 28.5,2.5 C 32.8333,2.5 37.1667,2.5 41.5,2.5C 41.5,17.1667 41.5,31.8333 41.5,46.5C 38.5,46.5 35.5,46.5 32.5,46.5C 32.5,34.8333 32.5,23.1667 32.5,11.5C 31.1667,11.5 29.8333,11.5 28.5,11.5C 28.5,8.5 28.5,5.5 28.5,2.5 Z M 17.5,13.5 C 21.8333,13.5 26.1667,13.5 30.5,13.5C 30.5,24.5 30.5,35.5 30.5,46.5C 28.1667,46.5 25.8333,46.5 23.5,46.5C 23.5,38.1667 23.5,29.8333 23.5,21.5C 21.5,21.5 19.5,21.5 17.5,21.5C 17.5,18.8333 17.5,16.1667 17.5,13.5 Z M 8.5,23.5 C 12.8333,23.5 17.1667,23.5 21.5,23.5C 21.5,31.1667 21.5,38.8333 21.5,46.5C 17.1667,46.5 12.8333,46.5 8.5,46.5C 8.5,38.8333 8.5,31.1667 8.5,23.5 Z"/></g>
</svg>
