<?xml version="1.0" standalone="no"?>
<!DOCTYPE svg PUBLIC "-//W3C//DTD SVG 20010904//EN"
 "http://www.w3.org/TR/2001/REC-SVG-20010904/DTD/svg10.dtd">
<svg version="1.0" xmlns="http://www.w3.org/2000/svg"
 width="512.000000pt" height="512.000000pt" viewBox="0 0 512.000000 512.000000"
 preserveAspectRatio="xMidYMid meet">
<metadata>
Created by potrace 1.16, written by Peter Selinger 2001-2019
</metadata>
<g transform="translate(0.000000,512.000000) scale(0.100000,-0.100000)"
fill="#000000" stroke="none">
<path d="M3212 4139 c-161 -21 -339 -89 -483 -185 -86 -57 -210 -179 -269
-265 l-44 -64 -69 22 c-202 66 -450 47 -642 -49 -168 -84 -327 -245 -398 -404
l-18 -40 -62 9 c-99 14 -288 2 -399 -27 -429 -110 -749 -457 -818 -888 -20
-123 -8 -350 24 -467 111 -398 412 -683 834 -788 61 -15 217 -17 1702 -20
1135 -3 1664 -1 1730 7 305 35 584 229 720 500 81 162 104 277 97 472 -6 165
-22 232 -91 373 -104 216 -292 386 -516 466 l-87 31 8 42 c66 352 -62 736
-328 987 -235 222 -570 330 -891 288z m262 -209 c190 -28 362 -115 501 -255
125 -126 199 -258 242 -431 25 -103 22 -296 -6 -398 -28 -106 -28 -150 3 -181
13 -13 35 -26 48 -29 103 -20 173 -41 233 -70 183 -87 316 -236 382 -430 26
-75 28 -92 28 -231 -1 -142 -2 -154 -31 -232 -43 -115 -88 -185 -174 -272 -79
-80 -149 -127 -250 -168 -138 -55 -77 -54 -1855 -51 l-1640 3 -80 22 c-317 89
-561 334 -646 648 -31 113 -31 316 0 430 27 102 95 242 155 322 198 262 539
396 861 338 164 -30 182 -22 231 100 81 207 245 355 454 412 135 36 313 17
441 -48 79 -39 122 -39 161 4 17 17 47 60 67 94 175 301 530 472 875 423z"/>
</g>
</svg>
